Coordinates
version=1
nRows=9
nColumns=24
inDegrees=yes

Units are S.I. units (second, meters, Newtons, ...)
Angles are in degrees.

endheader
time	pelvis_tilt	pelvis_list	pelvis_rotation	pelvis_tx	pelvis_ty	pelvis_tz	hip_flexion_r	hip_adduction_r	hip_rotation_r	knee_angle_r	ankle_angle_r	subtalar_angle_r	mtp_angle_r	hip_flexion_l	hip_adduction_l	hip_rotation_l	knee_angle_l	ankle_angle_l	subtalar_angle_l	mtp_angle_l	lumbar_extension	lumbar_bending	lumbar_rotation
      1.70366667	      0.90506748	      6.55384669	     -5.17995355	      1.36005500	      1.00725803	      0.26584429	      9.30358107	    -10.31906877	     -0.64643722	    -65.34987840	     -7.12396375	    -10.64260725	     -0.05420338	      8.65408951	     11.91850734	      7.71521370	    -17.41428006	      6.04338965	    -20.11254891	     -9.88602739	    -11.99810824	     -0.50133963	      0.73477010
      1.70783333	      0.98419368	      6.35169335	     -5.01989057	      1.36494646	      1.00838461	      0.26545785	      9.77126656	    -10.04873446	     -0.63850336	    -65.14333309	     -5.83219045	    -10.18126088	     -0.06629306	      7.97144029	     11.76285242	      8.07834471	    -16.90519857	      5.96363254	    -20.26402596	     -9.87928666	    -12.10849072	     -0.16744055	      0.32805905
      1.71200000	      1.03594401	      6.12128332	     -4.87989530	      1.36981427	      1.00946101	      0.26512241	     10.26001028	     -9.73164770	     -0.59443212	    -64.87961112	     -4.63308392	     -9.69381227	     -0.07278135	      7.32438909	     11.55993182	      8.38963678	    -16.40602026	      5.95788602	    -20.33641865	     -9.87351232	    -12.18010935	      0.18065884	      0.05868571
      1.71616667	      1.10948173	      5.91166490	     -4.74350294	      1.37468109	      1.01051777	      0.26479039	     10.72146362	     -9.44824814	     -0.55961552	    -64.58264703	     -3.45581977	     -9.24000701	     -0.08865050	      6.65016121	     11.37636614	      8.70762745	    -15.88989652	      5.91322656	    -20.43816947	     -9.87203115	    -12.27217102	      0.51054970	     -0.26059563
      1.72033333	      1.18196417	      5.69993171	     -4.61458727	      1.37954123	      1.01152816	      0.26446511	     11.17815672	     -9.16470346	     -0.52348920	    -64.24273707	     -2.34214106	     -8.82719665	     -0.11824332	      5.98276105	     11.18538408	      9.01089824	    -15.37714127	      5.86059378	    -20.55437213	     -9.87107832	    -12.36976508	      0.83857248	     -0.55853021
      1.72450000	      1.25083280	      5.49980343	     -4.47992385	      1.38439679	      1.01248795	      0.26414929	     11.63300717	     -8.89463182	     -0.49019262	    -63.86695963	     -1.28966426	     -8.45207102	     -0.15744375	      5.31989604	     11.00068415	      9.31441105	    -14.86406469	      5.80960098	    -20.66599733	     -9.87170625	    -12.45733290	      1.15325262	     -0.85886777
      1.72866667	      1.32420318	      5.29453837	     -4.35033741	      1.38921532	      1.01341406	      0.26384710	     12.07149970	     -8.61854924	     -0.45398363	    -63.44446170	     -0.28949574	     -8.12267621	     -0.20467858	      4.65715092	     10.80284013	      9.59948987	    -14.34027980	      5.74920391	    -20.76296929	     -9.87415253	    -12.55527960	      1.47105277	     -1.14032677
      1.73283333	      1.37707560	      5.09370415	     -4.23104898	      1.39405390	      1.01425221	      0.26356895	     12.53146105	     -8.34279245	     -0.40141934	    -62.99127663	      0.64588369	     -7.83159748	     -0.26090836	      4.02062614	     10.60349450	      9.86658014	    -13.83313469	      5.70118751	    -20.85764494	     -9.87705626	    -12.62740917	      1.78281561	     -1.39868342
      1.73700000	      1.44442039	      4.90494122	     -4.11668697	      1.39885988	      1.01505535	      0.26330297	     12.97021368	     -8.08718190	     -0.35378773	    -62.50315586	      1.54552178	     -7.56009489	     -0.31533368	      3.38181155	     10.41317610	     10.11375154	    -13.33890167	      5.65206152	    -20.94045983	     -9.87974686	    -12.72965990	      2.07950149	     -1.64836559
